<?xml version="1.0" encoding="utf-8"?>
<!-- Generator: Adobe Illustrator 23.0.6, SVG Export Plug-In . SVG Version: 6.00 Build 0)  -->
<svg version="1.1" id="Layer_1" xmlns="http://www.w3.org/2000/svg" xmlns:xlink="http://www.w3.org/1999/xlink" x="0px" y="0px"
	 viewBox="0 0 24 24" style="enable-background:new 0 0 24 24;" xml:space="preserve">
<style type="text/css">
	.st0{fill:#6750A8;}
	.st1{fill:#FFFFFF;}
</style>
<rect class="st0" width="24" height="24"/>
<path class="st1" d="M6,5.992v1.5c2.486,0,4.509,2.022,4.509,4.509S8.487,16.509,6,16.509v1.5c3.313,0,6.009-2.695,6.009-6.009
	S9.314,5.992,6,5.992z"/>
<path class="st1" d="M8.993,12c0-1.65-1.343-2.993-2.992-2.993v1.5c0.823,0,1.492,0.67,1.492,1.493S6.824,13.493,6,13.493v1.5
	C7.65,14.993,8.993,13.65,8.993,12z"/>
<path class="st1" d="M16.515,10.515c-0.82,0-1.485,0.665-1.485,1.485c0,0.82,0.665,1.485,1.485,1.485C17.335,13.485,18,12.82,18,12
	C18,11.18,17.335,10.515,16.515,10.515z"/>
</svg>
