<svg xmlns="http://www.w3.org/2000/svg" width="220" height="220" viewBox="0 0 220 220">
  <g id="Group_337" data-name="Group 337" transform="translate(-1342 -379)">
    <rect id="Rectangle_566" data-name="Rectangle 566" width="220" height="220" transform="translate(1342 379)" fill="none"/>
    <g id="Group_336" data-name="Group 336" transform="translate(-2227.608 -2608.451) rotate(45)" opacity="0.149">
      <path id="Subtraction_3" data-name="Subtraction 3" d="M49.379,49.379H39.407a39.165,39.165,0,0,0-3.1-15.338,39.244,39.244,0,0,0-8.445-12.526,39.256,39.256,0,0,0-12.525-8.445A39.157,39.157,0,0,0,0,9.974V0A49.059,49.059,0,0,1,19.221,3.88a49.359,49.359,0,0,1,8.388,4.553,49.659,49.659,0,0,1,7.307,6.03,49.611,49.611,0,0,1,6.03,7.307A49.359,49.359,0,0,1,45.5,30.158a49.052,49.052,0,0,1,3.88,19.22Z" transform="translate(4720 -388.882)"/>
      <path id="Subtraction_6" data-name="Subtraction 6" d="M89.467,89.467H71.4a70.96,70.96,0,0,0-5.613-27.79,71.1,71.1,0,0,0-15.3-22.695,71.127,71.127,0,0,0-22.693-15.3A70.946,70.946,0,0,0,0,18.071V0A88.887,88.887,0,0,1,34.825,7.031a89.431,89.431,0,0,1,15.2,8.249A89.974,89.974,0,0,1,63.262,26.2a89.886,89.886,0,0,1,10.925,13.24,89.434,89.434,0,0,1,8.249,15.2,88.875,88.875,0,0,1,7.031,34.824Z" transform="translate(4720 -428.97)"/>
      <path id="Subtraction_9" data-name="Subtraction 9" d="M144.289,144.289H115.15A114.441,114.441,0,0,0,106.1,99.47a114.673,114.673,0,0,0-24.678-36.6,114.711,114.711,0,0,0-36.6-24.676A114.418,114.418,0,0,0,0,29.144V0A143.354,143.354,0,0,1,56.164,11.339a144.232,144.232,0,0,1,24.51,13.3,145.107,145.107,0,0,1,21.352,17.62,144.965,144.965,0,0,1,17.62,21.352,144.233,144.233,0,0,1,13.3,24.51,143.333,143.333,0,0,1,11.339,56.162Z" transform="translate(4720 -483.792)"/>
    </g>
  </g>
</svg>
